<svg width="1440" height="732" viewBox="0 0 1440 732" fill="none" xmlns="http://www.w3.org/2000/svg">
<g clip-path="url(#clip0)">
<path d="M1440 0V113.399L0 627V0H1440Z" fill="#EBEEF2" stroke="#EBEEF2"/>
<path d="M812.869 213.168C779.781 150.501 737.566 70.5474 693.719 -1L1440.14 -0.999996L1440.14 726.5C1434.93 728.465 1429.62 730.299 1424.21 732L1235.75 732C1055.06 671.926 932.418 439.613 813.026 213.466L812.984 213.387L812.869 213.168Z" fill="#FAEFAE"/>
<path fill-rule="evenodd" clip-rule="evenodd" d="M240 4.5L240 2L241 2L241 4.5L240 4.5ZM240 14.5L240 9.5L241 9.5L241 14.5L240 14.5ZM240 24.5L240 19.5L241 19.5L241 24.5L240 24.5ZM240 34.5L240 29.5L241 29.5L241 34.5L240 34.5ZM240 44.5L240 39.5L241 39.5L241 44.5L240 44.5ZM240 54.5L240 49.5L241 49.5L241 54.5L240 54.5ZM240 64.5L240 59.5L241 59.5L241 64.5L240 64.5ZM240 74.5L240 69.5L241 69.5L241 74.5L240 74.5ZM240 84.5L240 79.5L241 79.5L241 84.5L240 84.5ZM240 94.5L240 89.5L241 89.5L241 94.5L240 94.5ZM240 104.5L240 99.5L241 99.5L241 104.5L240 104.5ZM240 114.5L240 109.5L241 109.5L241 114.5L240 114.5ZM240 124.5L240 119.5L241 119.5L241 124.5L240 124.5ZM240 134.5L240 129.5L241 129.5L241 134.5L240 134.5ZM240 144.5L240 139.5L241 139.5L241 144.5L240 144.5ZM240 154.5L240 149.5L241 149.5L241 154.5L240 154.5ZM240 164.5L240 159.5L241 159.5L241 164.5L240 164.5ZM240 174.5L240 169.5L241 169.5L241 174.5L240 174.5ZM240 184.5L240 179.5L241 179.5L241 184.5L240 184.5ZM240 194.5L240 189.5L241 189.5L241 194.5L240 194.5ZM240 204.5L240 199.5L241 199.5L241 204.5L240 204.5ZM240 214.5L240 209.5L241 209.5L241 214.5L240 214.5ZM240 224.5L240 219.5L241 219.5L241 224.5L240 224.5ZM240 234.5L240 229.5L241 229.5L241 234.5L240 234.5ZM240 244.5L240 239.5L241 239.5L241 244.5L240 244.5ZM240 254.5L240 249.5L241 249.5L241 254.5L240 254.5ZM240 264.5L240 259.5L241 259.5L241 264.5L240 264.5ZM240 274.5L240 269.5L241 269.5L241 274.5L240 274.5ZM240 284.5L240 279.5L241 279.5L241 284.5L240 284.5ZM240 294.5L240 289.5L241 289.5L241 294.5L240 294.5ZM240 304.5L240 299.5L241 299.5L241 304.5L240 304.5ZM240 314.5L240 309.5L241 309.5L241 314.5L240 314.5ZM240 324.5L240 319.5L241 319.5L241 324.5L240 324.5ZM240 334.5L240 329.5L241 329.5L241 334.5L240 334.5ZM240 344.5L240 339.5L241 339.5L241 344.5L240 344.5ZM240 354.5L240 349.5L241 349.5L241 354.5L240 354.5ZM240 364.5L240 359.5L241 359.5L241 364.5L240 364.5ZM240 374.5L240 369.5L241 369.5L241 374.5L240 374.5ZM240 384.5L240 379.5L241 379.5L241 384.5L240 384.5ZM240 394.5L240 389.5L241 389.5L241 394.5L240 394.5ZM240 404.5L240 399.5L241 399.5L241 404.5L240 404.5ZM240 414.5L240 409.5L241 409.5L241 414.5L240 414.5ZM240 424.5L240 419.5L241 419.5L241 424.5L240 424.5ZM240 434.5L240 429.5L241 429.5L241 434.5L240 434.5ZM240 444.5L240 439.5L241 439.5L241 444.5L240 444.5ZM240 454.5L240 449.5L241 449.5L241 454.5L240 454.5ZM240 464.5L240 459.5L241 459.5L241 464.5L240 464.5ZM240 474.5L240 469.5L241 469.5L241 474.5L240 474.5ZM240 484.5L240 479.5L241 479.5L241 484.5L240 484.5ZM240 494.5L240 489.5L241 489.5L241 494.5L240 494.5ZM240 504.5L240 499.5L241 499.5L241 504.5L240 504.5ZM240 514.5L240 509.5L241 509.5L241 514.5L240 514.5ZM240 524.5L240 519.5L241 519.5L241 524.5L240 524.5ZM240 534.5L240 529.5L241 529.5L241 534.5L240 534.5ZM240 544.5L240 539.5L241 539.5L241 544.5L240 544.5ZM240 554.5L240 549.5L241 549.5L241 554.5L240 554.5ZM240 564.5L240 559.5L241 559.5L241 564.5L240 564.5ZM240 574.5L240 569.5L241 569.5L241 574.5L240 574.5ZM240 584.5L240 579.5L241 579.5L241 584.5L240 584.5ZM240 594.5L240 589.5L241 589.5L241 594.5L240 594.5ZM240 604.5L240 599.5L241 599.5L241 604.5L240 604.5ZM240 614.5L240 609.5L241 609.5L241 614.5L240 614.5ZM240 624.5L240 619.5L241 619.5L241 624.5L240 624.5ZM240 634.5L240 629.5L241 629.5L241 634.5L240 634.5ZM240 644.5L240 639.5L241 639.5L241 644.5L240 644.5ZM240 654.5L240 649.5L241 649.5L241 654.5L240 654.5ZM240 664.5L240 659.5L241 659.5L241 664.5L240 664.5ZM240 674.5L240 669.5L241 669.5L241 674.5L240 674.5ZM240 684.5L240 679.5L241 679.5L241 684.5L240 684.5ZM240 694.5L240 689.5L241 689.5L241 694.5L240 694.5ZM240 704.5L240 699.5L241 699.5L241 704.5L240 704.5ZM240 714.5L240 709.5L241 709.5L241 714.5L240 714.5ZM240 724.5L240 719.5L241 719.5L241 724.5L240 724.5ZM240 732L240 729.5L241 729.5L241 732L240 732Z" fill="#052E57"/>
<path fill-rule="evenodd" clip-rule="evenodd" d="M480 4.5L480 2L481 2L481 4.5L480 4.5ZM480 14.5L480 9.5L481 9.5L481 14.5L480 14.5ZM480 24.5L480 19.5L481 19.5L481 24.5L480 24.5ZM480 34.5L480 29.5L481 29.5L481 34.5L480 34.5ZM480 44.5L480 39.5L481 39.5L481 44.5L480 44.5ZM480 54.5L480 49.5L481 49.5L481 54.5L480 54.5ZM480 64.5L480 59.5L481 59.5L481 64.5L480 64.5ZM480 74.5L480 69.5L481 69.5L481 74.5L480 74.5ZM480 84.5L480 79.5L481 79.5L481 84.5L480 84.5ZM480 94.5L480 89.5L481 89.5L481 94.5L480 94.5ZM480 104.5L480 99.5L481 99.5L481 104.5L480 104.5ZM480 114.5L480 109.5L481 109.5L481 114.5L480 114.5ZM480 124.5L480 119.5L481 119.5L481 124.5L480 124.5ZM480 134.5L480 129.5L481 129.5L481 134.5L480 134.5ZM480 144.5L480 139.5L481 139.5L481 144.5L480 144.5ZM480 154.5L480 149.5L481 149.5L481 154.5L480 154.5ZM480 164.5L480 159.5L481 159.5L481 164.5L480 164.5ZM480 174.5L480 169.5L481 169.5L481 174.5L480 174.5ZM480 184.5L480 179.5L481 179.5L481 184.5L480 184.5ZM480 194.5L480 189.5L481 189.5L481 194.5L480 194.5ZM480 204.5L480 199.5L481 199.5L481 204.5L480 204.5ZM480 214.5L480 209.5L481 209.5L481 214.5L480 214.5ZM480 224.5L480 219.5L481 219.5L481 224.5L480 224.5ZM480 234.5L480 229.5L481 229.5L481 234.5L480 234.5ZM480 244.5L480 239.5L481 239.5L481 244.5L480 244.5ZM480 254.5L480 249.5L481 249.5L481 254.5L480 254.5ZM480 264.5L480 259.5L481 259.5L481 264.5L480 264.5ZM480 274.5L480 269.5L481 269.5L481 274.5L480 274.5ZM480 284.5L480 279.5L481 279.5L481 284.5L480 284.5ZM480 294.5L480 289.5L481 289.5L481 294.5L480 294.5ZM480 304.5L480 299.5L481 299.5L481 304.5L480 304.5ZM480 314.5L480 309.5L481 309.5L481 314.5L480 314.5ZM480 324.5L480 319.5L481 319.5L481 324.5L480 324.5ZM480 334.5L480 329.5L481 329.5L481 334.5L480 334.5ZM480 344.5L480 339.5L481 339.5L481 344.5L480 344.5ZM480 354.5L480 349.5L481 349.5L481 354.5L480 354.5ZM480 364.5L480 359.5L481 359.5L481 364.5L480 364.5ZM480 374.5L480 369.5L481 369.5L481 374.5L480 374.5ZM480 384.5L480 379.5L481 379.5L481 384.5L480 384.5ZM480 394.5L480 389.5L481 389.5L481 394.5L480 394.5ZM480 404.5L480 399.5L481 399.5L481 404.5L480 404.5ZM480 414.5L480 409.5L481 409.5L481 414.5L480 414.5ZM480 424.5L480 419.5L481 419.5L481 424.5L480 424.5ZM480 434.5L480 429.5L481 429.5L481 434.5L480 434.5ZM480 444.5L480 439.5L481 439.5L481 444.5L480 444.5ZM480 454.5L480 449.5L481 449.5L481 454.5L480 454.5ZM480 464.5L480 459.5L481 459.5L481 464.5L480 464.5ZM480 474.5L480 469.5L481 469.5L481 474.5L480 474.5ZM480 484.5L480 479.5L481 479.5L481 484.5L480 484.5ZM480 494.5L480 489.5L481 489.5L481 494.5L480 494.5ZM480 504.5L480 499.5L481 499.5L481 504.5L480 504.5ZM480 514.5L480 509.5L481 509.5L481 514.5L480 514.5ZM480 524.5L480 519.5L481 519.5L481 524.5L480 524.5ZM480 534.5L480 529.5L481 529.5L481 534.5L480 534.5ZM480 544.5L480 539.5L481 539.5L481 544.5L480 544.5ZM480 554.5L480 549.5L481 549.5L481 554.5L480 554.5ZM480 564.5L480 559.5L481 559.5L481 564.5L480 564.5ZM480 574.5L480 569.5L481 569.5L481 574.5L480 574.5ZM480 584.5L480 579.5L481 579.5L481 584.5L480 584.5ZM480 594.5L480 589.5L481 589.5L481 594.5L480 594.5ZM480 604.5L480 599.5L481 599.5L481 604.5L480 604.5ZM480 614.5L480 609.5L481 609.5L481 614.5L480 614.5ZM480 624.5L480 619.5L481 619.5L481 624.5L480 624.5ZM480 634.5L480 629.5L481 629.5L481 634.5L480 634.5ZM480 644.5L480 639.5L481 639.5L481 644.5L480 644.5ZM480 654.5L480 649.5L481 649.5L481 654.5L480 654.5ZM480 664.5L480 659.5L481 659.5L481 664.5L480 664.5ZM480 674.5L480 669.5L481 669.5L481 674.5L480 674.5ZM480 684.5L480 679.5L481 679.5L481 684.5L480 684.5ZM480 694.5L480 689.5L481 689.5L481 694.5L480 694.5ZM480 704.5L480 699.5L481 699.5L481 704.5L480 704.5ZM480 714.5L480 709.5L481 709.5L481 714.5L480 714.5ZM480 724.5L480 719.5L481 719.5L481 724.5L480 724.5ZM480 732L480 729.5L481 729.5L481 732L480 732Z" fill="#052E57"/>
<path fill-rule="evenodd" clip-rule="evenodd" d="M720 4.5L720 2L721 2L721 4.5L720 4.5ZM720 14.5L720 9.5L721 9.5L721 14.5L720 14.5ZM720 24.5L720 19.5L721 19.5L721 24.5L720 24.5ZM720 34.5L720 29.5L721 29.5L721 34.5L720 34.5ZM720 44.5L720 39.5L721 39.5L721 44.5L720 44.5ZM720 54.5L720 49.5L721 49.5L721 54.5L720 54.5ZM720 64.5L720 59.5L721 59.5L721 64.5L720 64.5ZM720 74.5L720 69.5L721 69.5L721 74.5L720 74.5ZM720 84.5L720 79.5L721 79.5L721 84.5L720 84.5ZM720 94.5L720 89.5L721 89.5L721 94.5L720 94.5ZM720 104.5L720 99.5L721 99.5L721 104.5L720 104.5ZM720 114.5L720 109.5L721 109.5L721 114.5L720 114.5ZM720 124.5L720 119.5L721 119.5L721 124.5L720 124.5ZM720 134.5L720 129.5L721 129.5L721 134.5L720 134.5ZM720 144.5L720 139.5L721 139.5L721 144.5L720 144.5ZM720 154.5L720 149.5L721 149.5L721 154.5L720 154.5ZM720 164.5L720 159.5L721 159.5L721 164.5L720 164.5ZM720 174.5L720 169.5L721 169.5L721 174.5L720 174.5ZM720 184.5L720 179.5L721 179.5L721 184.5L720 184.5ZM720 194.5L720 189.5L721 189.5L721 194.5L720 194.5ZM720 204.5L720 199.5L721 199.5L721 204.5L720 204.5ZM720 214.5L720 209.5L721 209.5L721 214.5L720 214.5ZM720 224.5L720 219.5L721 219.5L721 224.5L720 224.5ZM720 234.5L720 229.5L721 229.5L721 234.5L720 234.5ZM720 244.5L720 239.5L721 239.5L721 244.5L720 244.5ZM720 254.5L720 249.5L721 249.5L721 254.5L720 254.5ZM720 264.5L720 259.5L721 259.5L721 264.5L720 264.5ZM720 274.5L720 269.5L721 269.5L721 274.5L720 274.5ZM720 284.5L720 279.5L721 279.5L721 284.5L720 284.5ZM720 294.5L720 289.5L721 289.5L721 294.5L720 294.5ZM720 304.5L720 299.5L721 299.5L721 304.5L720 304.5ZM720 314.5L720 309.5L721 309.5L721 314.5L720 314.5ZM720 324.5L720 319.5L721 319.5L721 324.5L720 324.5ZM720 334.5L720 329.5L721 329.5L721 334.5L720 334.5ZM720 344.5L720 339.5L721 339.5L721 344.5L720 344.5ZM720 354.5L720 349.5L721 349.5L721 354.5L720 354.5ZM720 364.5L720 359.5L721 359.5L721 364.5L720 364.5ZM720 374.5L720 369.5L721 369.5L721 374.5L720 374.5ZM720 384.5L720 379.5L721 379.5L721 384.5L720 384.5ZM720 394.5L720 389.5L721 389.5L721 394.5L720 394.5ZM720 404.5L720 399.5L721 399.5L721 404.5L720 404.5ZM720 414.5L720 409.5L721 409.5L721 414.5L720 414.5ZM720 424.5L720 419.5L721 419.5L721 424.5L720 424.5ZM720 434.5L720 429.5L721 429.5L721 434.5L720 434.5ZM720 444.5L720 439.5L721 439.5L721 444.5L720 444.5ZM720 454.5L720 449.5L721 449.5L721 454.5L720 454.5ZM720 464.5L720 459.5L721 459.5L721 464.5L720 464.5ZM720 474.5L720 469.5L721 469.5L721 474.5L720 474.5ZM720 484.5L720 479.5L721 479.5L721 484.5L720 484.5ZM720 494.5L720 489.5L721 489.5L721 494.5L720 494.5ZM720 504.5L720 499.5L721 499.5L721 504.5L720 504.5ZM720 514.5L720 509.5L721 509.5L721 514.5L720 514.5ZM720 524.5L720 519.5L721 519.5L721 524.5L720 524.5ZM720 534.5L720 529.5L721 529.5L721 534.5L720 534.5ZM720 544.5L720 539.5L721 539.5L721 544.5L720 544.5ZM720 554.5L720 549.5L721 549.5L721 554.5L720 554.5ZM720 564.5L720 559.5L721 559.5L721 564.5L720 564.5ZM720 574.5L720 569.5L721 569.5L721 574.5L720 574.5ZM720 584.5L720 579.5L721 579.5L721 584.5L720 584.5ZM720 594.5L720 589.5L721 589.5L721 594.5L720 594.5ZM720 604.5L720 599.5L721 599.5L721 604.5L720 604.5ZM720 614.5L720 609.5L721 609.5L721 614.5L720 614.5ZM720 624.5L720 619.5L721 619.5L721 624.5L720 624.5ZM720 634.5L720 629.5L721 629.5L721 634.5L720 634.5ZM720 644.5L720 639.5L721 639.5L721 644.5L720 644.5ZM720 654.5L720 649.5L721 649.5L721 654.5L720 654.5ZM720 664.5L720 659.5L721 659.5L721 664.5L720 664.5ZM720 674.5L720 669.5L721 669.5L721 674.5L720 674.5ZM720 684.5L720 679.5L721 679.5L721 684.5L720 684.5ZM720 694.5L720 689.5L721 689.5L721 694.5L720 694.5ZM720 704.5L720 699.5L721 699.5L721 704.5L720 704.5ZM720 714.5L720 709.5L721 709.5L721 714.5L720 714.5ZM720 724.5L720 719.5L721 719.5L721 724.5L720 724.5ZM720 732L720 729.5L721 729.5L721 732L720 732Z" fill="#052E57"/>
<path fill-rule="evenodd" clip-rule="evenodd" d="M960 4.5L960 2L961 2L961 4.5L960 4.5ZM960 14.5L960 9.5L961 9.5L961 14.5L960 14.5ZM960 24.5L960 19.5L961 19.5L961 24.5L960 24.5ZM960 34.5L960 29.5L961 29.5L961 34.5L960 34.5ZM960 44.5L960 39.5L961 39.5L961 44.5L960 44.5ZM960 54.5L960 49.5L961 49.5L961 54.5L960 54.5ZM960 64.5L960 59.5L961 59.5L961 64.5L960 64.5ZM960 74.5L960 69.5L961 69.5L961 74.5L960 74.5ZM960 84.5L960 79.5L961 79.5L961 84.5L960 84.5ZM960 94.5L960 89.5L961 89.5L961 94.5L960 94.5ZM960 104.5L960 99.5L961 99.5L961 104.5L960 104.5ZM960 114.5L960 109.5L961 109.5L961 114.5L960 114.5ZM960 124.5L960 119.5L961 119.5L961 124.5L960 124.5ZM960 134.5L960 129.5L961 129.5L961 134.5L960 134.5ZM960 144.5L960 139.5L961 139.5L961 144.5L960 144.5ZM960 154.5L960 149.5L961 149.5L961 154.5L960 154.5ZM960 164.5L960 159.5L961 159.5L961 164.5L960 164.5ZM960 174.5L960 169.5L961 169.5L961 174.5L960 174.5ZM960 184.5L960 179.5L961 179.5L961 184.5L960 184.5ZM960 194.5L960 189.5L961 189.5L961 194.5L960 194.5ZM960 204.5L960 199.5L961 199.5L961 204.5L960 204.5ZM960 214.5L960 209.5L961 209.5L961 214.5L960 214.5ZM960 224.5L960 219.5L961 219.5L961 224.5L960 224.5ZM960 234.5L960 229.5L961 229.5L961 234.5L960 234.5ZM960 244.5L960 239.5L961 239.5L961 244.5L960 244.5ZM960 254.5L960 249.5L961 249.5L961 254.5L960 254.5ZM960 264.5L960 259.5L961 259.5L961 264.5L960 264.5ZM960 274.5L960 269.5L961 269.5L961 274.5L960 274.5ZM960 284.5L960 279.5L961 279.5L961 284.5L960 284.5ZM960 294.5L960 289.5L961 289.5L961 294.5L960 294.5ZM960 304.5L960 299.5L961 299.5L961 304.5L960 304.5ZM960 314.5L960 309.5L961 309.5L961 314.5L960 314.5ZM960 324.5L960 319.5L961 319.5L961 324.5L960 324.5ZM960 334.5L960 329.5L961 329.5L961 334.5L960 334.5ZM960 344.5L960 339.5L961 339.5L961 344.5L960 344.5ZM960 354.5L960 349.5L961 349.5L961 354.5L960 354.5ZM960 364.5L960 359.5L961 359.5L961 364.5L960 364.5ZM960 374.5L960 369.5L961 369.5L961 374.5L960 374.5ZM960 384.5L960 379.5L961 379.5L961 384.5L960 384.5ZM960 394.5L960 389.5L961 389.5L961 394.5L960 394.5ZM960 404.5L960 399.5L961 399.5L961 404.5L960 404.5ZM960 414.5L960 409.5L961 409.5L961 414.5L960 414.5ZM960 424.5L960 419.5L961 419.5L961 424.5L960 424.5ZM960 434.5L960 429.5L961 429.5L961 434.5L960 434.5ZM960 444.5L960 439.5L961 439.5L961 444.5L960 444.5ZM960 454.5L960 449.5L961 449.5L961 454.5L960 454.5ZM960 464.5L960 459.5L961 459.5L961 464.5L960 464.5ZM960 474.5L960 469.5L961 469.5L961 474.5L960 474.5ZM960 484.5L960 479.5L961 479.5L961 484.5L960 484.5ZM960 494.5L960 489.5L961 489.5L961 494.5L960 494.5ZM960 504.5L960 499.5L961 499.5L961 504.5L960 504.5ZM960 514.5L960 509.5L961 509.5L961 514.5L960 514.5ZM960 524.5L960 519.5L961 519.5L961 524.5L960 524.5ZM960 534.5L960 529.5L961 529.5L961 534.5L960 534.5ZM960 544.5L960 539.5L961 539.5L961 544.5L960 544.5ZM960 554.5L960 549.5L961 549.5L961 554.5L960 554.5ZM960 564.5L960 559.5L961 559.5L961 564.5L960 564.5ZM960 574.5L960 569.5L961 569.5L961 574.5L960 574.5ZM960 584.5L960 579.5L961 579.5L961 584.5L960 584.5ZM960 594.5L960 589.5L961 589.5L961 594.5L960 594.5ZM960 604.5L960 599.5L961 599.5L961 604.5L960 604.5ZM960 614.5L960 609.5L961 609.5L961 614.5L960 614.5ZM960 624.5L960 619.5L961 619.5L961 624.5L960 624.5ZM960 634.5L960 629.5L961 629.5L961 634.5L960 634.5ZM960 644.5L960 639.5L961 639.5L961 644.5L960 644.5ZM960 654.5L960 649.5L961 649.5L961 654.5L960 654.5ZM960 664.5L960 659.5L961 659.5L961 664.5L960 664.5ZM960 674.5L960 669.5L961 669.5L961 674.5L960 674.5ZM960 684.5L960 679.5L961 679.5L961 684.5L960 684.5ZM960 694.5L960 689.5L961 689.5L961 694.5L960 694.5ZM960 704.5L960 699.5L961 699.5L961 704.5L960 704.5ZM960 714.5L960 709.5L961 709.5L961 714.5L960 714.5ZM960 724.5L960 719.5L961 719.5L961 724.5L960 724.5ZM960 732L960 729.5L961 729.5L961 732L960 732Z" fill="#052E57"/>
<path fill-rule="evenodd" clip-rule="evenodd" d="M1200 4.5L1200 2L1201 2L1201 4.5L1200 4.5ZM1200 14.5L1200 9.5L1201 9.5L1201 14.5L1200 14.5ZM1200 24.5L1200 19.5L1201 19.5L1201 24.5L1200 24.5ZM1200 34.5L1200 29.5L1201 29.5L1201 34.5L1200 34.5ZM1200 44.5L1200 39.5L1201 39.5L1201 44.5L1200 44.5ZM1200 54.5L1200 49.5L1201 49.5L1201 54.5L1200 54.5ZM1200 64.5L1200 59.5L1201 59.5L1201 64.5L1200 64.5ZM1200 74.5L1200 69.5L1201 69.5L1201 74.5L1200 74.5ZM1200 84.5L1200 79.5L1201 79.5L1201 84.5L1200 84.5ZM1200 94.5L1200 89.5L1201 89.5L1201 94.5L1200 94.5ZM1200 104.5L1200 99.5L1201 99.5L1201 104.5L1200 104.5ZM1200 114.5L1200 109.5L1201 109.5L1201 114.5L1200 114.5ZM1200 124.5L1200 119.5L1201 119.5L1201 124.5L1200 124.5ZM1200 134.5L1200 129.5L1201 129.5L1201 134.5L1200 134.5ZM1200 144.5L1200 139.5L1201 139.5L1201 144.5L1200 144.5ZM1200 154.5L1200 149.5L1201 149.5L1201 154.5L1200 154.5ZM1200 164.5L1200 159.5L1201 159.5L1201 164.5L1200 164.5ZM1200 174.5L1200 169.5L1201 169.5L1201 174.5L1200 174.5ZM1200 184.5L1200 179.5L1201 179.5L1201 184.5L1200 184.5ZM1200 194.5L1200 189.5L1201 189.5L1201 194.5L1200 194.5ZM1200 204.5L1200 199.5L1201 199.5L1201 204.5L1200 204.5ZM1200 214.5L1200 209.5L1201 209.5L1201 214.5L1200 214.5ZM1200 224.5L1200 219.5L1201 219.5L1201 224.5L1200 224.5ZM1200 234.5L1200 229.5L1201 229.5L1201 234.5L1200 234.5ZM1200 244.5L1200 239.5L1201 239.5L1201 244.5L1200 244.5ZM1200 254.5L1200 249.5L1201 249.5L1201 254.5L1200 254.5ZM1200 264.5L1200 259.5L1201 259.5L1201 264.5L1200 264.5ZM1200 274.5L1200 269.5L1201 269.5L1201 274.5L1200 274.5ZM1200 284.5L1200 279.5L1201 279.5L1201 284.5L1200 284.5ZM1200 294.5L1200 289.5L1201 289.5L1201 294.5L1200 294.5ZM1200 304.5L1200 299.5L1201 299.5L1201 304.5L1200 304.5ZM1200 314.5L1200 309.5L1201 309.5L1201 314.5L1200 314.5ZM1200 324.5L1200 319.5L1201 319.5L1201 324.5L1200 324.5ZM1200 334.5L1200 329.5L1201 329.5L1201 334.5L1200 334.5ZM1200 344.5L1200 339.5L1201 339.5L1201 344.5L1200 344.5ZM1200 354.5L1200 349.5L1201 349.5L1201 354.5L1200 354.5ZM1200 364.5L1200 359.5L1201 359.5L1201 364.5L1200 364.5ZM1200 374.5L1200 369.5L1201 369.5L1201 374.5L1200 374.5ZM1200 384.5L1200 379.5L1201 379.5L1201 384.5L1200 384.5ZM1200 394.5L1200 389.5L1201 389.5L1201 394.5L1200 394.5ZM1200 404.5L1200 399.5L1201 399.5L1201 404.5L1200 404.5ZM1200 414.5L1200 409.5L1201 409.5L1201 414.5L1200 414.5ZM1200 424.5L1200 419.5L1201 419.5L1201 424.5L1200 424.5ZM1200 434.5L1200 429.5L1201 429.5L1201 434.5L1200 434.5ZM1200 444.5L1200 439.5L1201 439.5L1201 444.5L1200 444.5ZM1200 454.5L1200 449.5L1201 449.5L1201 454.5L1200 454.5ZM1200 464.5L1200 459.5L1201 459.5L1201 464.5L1200 464.5ZM1200 474.5L1200 469.5L1201 469.5L1201 474.5L1200 474.5ZM1200 484.5L1200 479.5L1201 479.5L1201 484.5L1200 484.5ZM1200 494.5L1200 489.5L1201 489.5L1201 494.5L1200 494.5ZM1200 504.5L1200 499.5L1201 499.5L1201 504.5L1200 504.5ZM1200 514.5L1200 509.5L1201 509.5L1201 514.5L1200 514.5ZM1200 524.5L1200 519.5L1201 519.5L1201 524.5L1200 524.5ZM1200 534.5L1200 529.5L1201 529.5L1201 534.5L1200 534.5ZM1200 544.5L1200 539.5L1201 539.5L1201 544.5L1200 544.5ZM1200 554.5L1200 549.5L1201 549.5L1201 554.5L1200 554.5ZM1200 564.5L1200 559.5L1201 559.5L1201 564.5L1200 564.5ZM1200 574.5L1200 569.5L1201 569.5L1201 574.5L1200 574.5ZM1200 584.5L1200 579.5L1201 579.5L1201 584.5L1200 584.5ZM1200 594.5L1200 589.5L1201 589.5L1201 594.5L1200 594.5ZM1200 604.5L1200 599.5L1201 599.5L1201 604.5L1200 604.5ZM1200 614.5L1200 609.5L1201 609.5L1201 614.5L1200 614.5ZM1200 624.5L1200 619.5L1201 619.5L1201 624.5L1200 624.5ZM1200 634.5L1200 629.5L1201 629.5L1201 634.5L1200 634.5ZM1200 644.5L1200 639.5L1201 639.5L1201 644.5L1200 644.5ZM1200 654.5L1200 649.5L1201 649.5L1201 654.5L1200 654.5ZM1200 664.5L1200 659.5L1201 659.5L1201 664.5L1200 664.5ZM1200 674.5L1200 669.5L1201 669.5L1201 674.5L1200 674.5ZM1200 684.5L1200 679.5L1201 679.5L1201 684.5L1200 684.5ZM1200 694.5L1200 689.5L1201 689.5L1201 694.5L1200 694.5ZM1200 704.5L1200 699.5L1201 699.5L1201 704.5L1200 704.5ZM1200 714.5L1200 709.5L1201 709.5L1201 714.5L1200 714.5ZM1200 724.5L1200 719.5L1201 719.5L1201 724.5L1200 724.5ZM1200 732L1200 729.5L1201 729.5L1201 732L1200 732Z" fill="#052E57"/>
</g>
<defs>
<clipPath id="clip0">
<rect width="1440" height="732" fill="white"/>
</clipPath>
</defs>
</svg>
