<svg width="74" height="140" viewBox="0 0 74 140" fill="none" xmlns="http://www.w3.org/2000/svg">
<path d="M61.5996 116.345L59.6949 126.503L51.4413 120.154L56.3617 114.282L61.5996 116.345Z" fill="#FFB8B8"/>
<path d="M12.3955 117.297L14.3001 127.456L22.5537 121.107L18.5856 114.917L12.3955 117.297Z" fill="#FFB8B8"/>
<path d="M43.8231 59.8396L48.5848 64.9187C48.5848 64.9187 73.6631 76.0294 73.6631 81.7434C73.6631 87.4574 67.6316 112.218 65.092 114.123C63.5624 115.276 62.359 116.808 61.6001 118.567L54.6163 115.075C54.6163 115.075 55.2512 113.171 54.6163 112.218C53.9814 111.266 54.6163 110.631 54.6163 110.631C54.6163 110.631 55.5686 110.948 55.2512 109.996C54.9337 109.044 54.9337 108.726 55.2512 108.409C55.5686 108.091 56.521 105.234 56.521 105.234C56.521 105.234 56.2035 93.8064 60.6478 89.6796C60.6478 89.6796 40.0138 83.6481 37.4742 79.5213C34.9346 75.3945 34.2997 60.4745 34.2997 60.4745L43.8231 59.8396Z" fill="#052E57"/>
<path d="M58.4259 122.694C58.4259 122.694 59.0608 119.202 62.8702 120.154V124.281L66.3621 131.265C66.3621 131.265 73.6633 139.518 66.997 138.884C60.3306 138.249 56.5212 134.122 56.5212 132.217C56.5212 130.312 51.7595 127.455 51.7595 127.455C51.7595 127.455 46.6804 122.059 48.9025 120.154C51.1247 118.25 53.2958 115.02 53.3213 116.635C53.3468 118.25 58.4259 122.694 58.4259 122.694Z" fill="#2F2E41"/>
<path d="M30.1727 57.6173L25.411 65.8709C25.411 65.8709 0.332787 76.9815 0.332787 82.6956C0.332787 88.4096 6.36425 113.17 8.90383 115.075C10.4335 116.229 11.6368 117.76 12.3957 119.519L19.3796 116.027C19.3796 116.027 18.7447 114.123 19.3796 113.17C20.0145 112.218 19.3796 111.583 19.3796 111.583C19.3796 111.583 18.4272 111.901 18.7447 110.948C19.0621 109.996 19.0621 109.679 18.7447 109.361C18.4272 109.044 17.4749 106.187 17.4749 106.187C17.4749 106.187 17.7923 94.7585 13.3481 90.6317C13.3481 90.6317 35.8868 82.6956 38.4264 78.5688C41.6788 73.2836 39.3007 51.5802 40.0136 58.8871L30.1727 57.6173Z" fill="#052E57"/>
<path d="M15.5694 123.646C15.5694 123.646 14.9345 120.154 11.1252 121.107V125.233L7.63325 132.217C7.63325 132.217 0.331989 140.471 6.99836 139.836C13.6647 139.201 17.4741 135.074 17.4741 133.17C17.4741 131.265 22.2358 128.408 22.2358 128.408C22.2358 128.408 27.3149 123.011 25.0928 121.107C22.8707 119.202 20.6995 115.972 20.674 117.587C20.6486 119.202 15.5694 123.646 15.5694 123.646Z" fill="#2F2E41"/>
<path d="M28.5862 19.8412C24.0279 19.8412 20.3326 16.1459 20.3326 11.5876C20.3326 7.02925 24.0279 3.33398 28.5862 3.33398C33.1446 3.33398 36.8398 7.02925 36.8398 11.5876C36.8398 16.1459 33.1446 19.8412 28.5862 19.8412Z" fill="#FFB8B8"/>
<path d="M34.299 15.397C34.299 15.397 34.6165 22.0633 38.7433 23.968C42.8701 25.8727 32.0769 32.5391 32.0769 32.5391L24.1407 28.4123C24.1407 28.4123 26.0454 19.2063 24.4582 17.3016C22.8709 15.397 34.299 15.397 34.299 15.397Z" fill="#FFB8B8"/>
<path d="M22.8724 23.9678C22.8724 23.9678 33.9312 31.5092 37.2903 22.9768C37.2903 22.9768 45.4111 26.19 45.0936 28.4121C44.7762 30.6342 45.7285 61.1091 45.7285 61.1091C45.7285 61.1091 32.3958 64.9184 28.5864 61.1091C24.777 57.2997 22.8724 23.9678 22.8724 23.9678Z" fill="#D0CDE1"/>
<path d="M25.0779 21.1316L23.8235 22.3808C23.8235 22.3808 10.4908 28.0948 10.8082 31.2693C11.1257 34.4437 17.1571 49.3637 17.1571 49.3637C17.1571 49.3637 20.3316 60.7918 19.6967 63.9663C19.0618 67.1407 18.1095 68.0931 18.7444 69.0454C19.3793 69.9977 18.7444 71.9024 18.7444 72.5373C18.7444 73.1722 22.5537 75.7118 22.5537 75.7118C22.5537 75.7118 28.5852 70.3152 30.8073 69.3629C33.0295 68.4105 34.6167 61.1092 33.0295 54.7603C31.4422 48.4114 31.1248 34.7612 31.1248 34.7612L26.6805 28.0948C26.6805 28.0948 26.6498 23.3743 25.0779 21.1316Z" fill="#F3D30C"/>
<path d="M35.2817 19.8411C35.2817 19.8411 37.7915 19.5237 38.4264 21.1109C39.0613 22.6981 49.8544 26.19 49.8544 27.4598C49.8544 28.7296 46.68 44.6019 46.68 44.6019L46.0451 53.8079L51.7591 57.9347C51.7591 57.9347 50.4893 62.0615 52.0766 63.6487C53.6638 65.2359 55.5685 69.3627 53.6638 69.9976C51.7591 70.6325 40.0136 66.1883 39.6962 61.4266C39.3787 56.6649 40.6485 53.173 38.4264 49.6811C36.2043 46.1891 35.8868 32.539 35.8868 32.539L35.2817 19.8411Z" fill="#F3D30C"/>
<path d="M20.8767 4.46635C22.1106 2.46267 24.042 0.986174 26.2992 0.321039L27.957 1.64731L27.3125 0.100366C27.8545 0.0176775 28.4031 -0.0140309 28.951 0.00566109L30.4427 1.9235L29.8253 0.0713538C31.1196 0.232204 32.3666 0.659495 33.4876 1.32628C34.6086 1.99307 35.5792 2.8849 36.3384 3.94551C38.2369 6.68298 38.5572 10.4899 36.69 13.2487C36.1774 11.6735 35.5553 10.1955 35.0427 8.62022C34.6398 8.67514 34.2315 8.67713 33.8282 8.62614L33.2045 7.17101L33.0303 8.56459C31.0974 8.39617 28.2304 8.02647 26.3979 7.68771L26.5761 6.61864L25.51 7.50705C24.9486 7.37779 24.6152 7.2606 24.6428 7.17102C23.28 9.36811 21.6121 10.7714 20.2493 12.9685C19.732 9.86943 19.1361 7.2934 20.8767 4.46635Z" fill="#2F2E41"/>
<path d="M20.9662 13.0161C20.598 13.0161 20.2995 12.5186 20.2995 11.905C20.2995 11.2914 20.598 10.7939 20.9662 10.7939C21.3344 10.7939 21.6328 11.2914 21.6328 11.905C21.6328 12.5186 21.3344 13.0161 20.9662 13.0161Z" fill="#A0616A"/>
<path d="M24.3748 68.5231H38.7203C39.0814 68.5231 39.4276 68.3797 39.683 68.1244C39.9383 67.8691 40.0817 67.5228 40.0817 67.1617L40.7139 48.3912C40.7139 48.2124 40.6786 48.0354 40.6102 47.8702C40.5418 47.705 40.4415 47.5549 40.3151 47.4285C40.1887 47.3021 40.0386 47.2018 39.8734 47.1334C39.7083 47.065 39.5313 47.0298 39.3525 47.0298H23.7427C23.5639 47.0298 23.3869 47.065 23.2217 47.1334C23.0565 47.2018 22.9064 47.3021 22.78 47.4285C22.6536 47.5549 22.5533 47.705 22.4849 47.8702C22.4165 48.0354 22.3813 48.2124 22.3813 48.3912L23.0135 67.1617C23.0135 67.5228 23.1569 67.8691 23.4122 68.1244C23.6675 68.3797 24.0138 68.5231 24.3748 68.5231Z" fill="#3F3D56"/>
<path d="M31.5482 53.9835C30.8499 53.9835 30.2839 53.4174 30.2839 52.7191C30.2839 52.0209 30.8499 51.4548 31.5482 51.4548C32.2464 51.4548 32.8125 52.0209 32.8125 52.7191C32.8125 53.4174 32.2464 53.9835 31.5482 53.9835Z" fill="#D0CDE1"/>
<path d="M18.6601 59.7983C18.6601 59.7983 31.332 64.1424 28.1993 66.9086C25.0666 69.6747 16.7205 62.8434 16.7205 62.8434L18.6601 59.7983Z" fill="#FFB8B8"/>
<path d="M15.8874 29.3645C15.8874 29.3645 11.1257 28.4122 9.85592 32.539C8.58615 36.6658 2.23721 51.9032 4.14189 54.1253C6.04657 56.3475 13.0304 62.3789 15.2525 63.6487C17.4746 64.9185 18.427 64.9185 18.427 64.9185L21.284 66.1883L22.2363 58.887L18.9781 56.957L13.9827 52.8555L16.8397 44.2845L15.8874 29.3645Z" fill="#F3D30C"/>
<path d="M44.2244 57.5762C44.2244 57.5762 31.5526 61.9203 34.6853 64.6864C37.8179 67.4525 46.1641 60.6212 46.1641 60.6212L44.2244 57.5762Z" fill="#FFB8B8"/>
<path d="M46.9975 27.1426C46.9975 27.1426 51.7592 26.1902 53.0289 30.317C54.2987 34.4438 60.6477 49.6813 58.743 51.9034C56.8383 54.1255 49.8545 60.157 47.6324 61.4268C45.4102 62.6966 44.4579 62.6966 44.4579 62.6966L41.6009 63.9664L40.6485 56.6651L43.9067 54.7351L48.9021 50.6336L44.2992 39.3643L46.9975 27.1426Z" fill="#F3D30C"/>
</svg>
