<svg width="106" height="143" viewBox="0 0 106 143" fill="none" xmlns="http://www.w3.org/2000/svg">
<path d="M55.6775 43.4907C64.0047 43.4907 70.7553 36.7401 70.7553 28.4128C70.7553 20.0855 64.0047 13.335 55.6775 13.335C47.3502 13.335 40.5996 20.0855 40.5996 28.4128C40.5996 36.7401 47.3502 43.4907 55.6775 43.4907Z" fill="#FAEFAE"/>
<path d="M61.7878 113.057L62.9493 118.537L84.6386 116.666L82.9247 108.578L61.7878 113.057Z" fill="#FFB8B8"/>
<path d="M60.1003 130.184L56.4507 112.962L63.1048 111.552L65.3444 122.12C65.7184 123.885 65.376 125.726 64.3925 127.238C63.4091 128.75 61.8651 129.81 60.1004 130.184L60.1003 130.184Z" fill="#2F2E41"/>
<path d="M48.2001 112.765L45.7589 117.807L25.1506 110.79L28.7538 103.35L48.2001 112.765Z" fill="#FFB8B8"/>
<path d="M42.5753 120.71L47.2831 110.987L53.4051 113.951L45.7331 129.797C44.9291 129.407 44.2097 128.864 43.6159 128.196C43.0221 127.529 42.5656 126.751 42.2724 125.908C41.9791 125.064 41.855 124.171 41.9069 123.279C41.9589 122.387 42.186 121.514 42.5753 120.71Z" fill="#2F2E41"/>
<path d="M7.59898 102.808C8.30443 102.939 9.03008 102.914 9.72486 102.735C10.4196 102.555 11.0666 102.226 11.6202 101.769C12.1739 101.313 12.6206 100.74 12.9291 100.092C13.2376 99.4445 13.4003 98.7369 13.4057 98.0193L47.3875 66.6888L38.9485 60.1526L8.18163 93.0239C6.97558 93.0947 5.8374 93.6054 4.98277 94.4594C4.12813 95.3133 3.61645 96.451 3.54462 97.657C3.4728 98.863 3.84586 100.053 4.5931 101.003C5.34034 101.952 6.40984 102.594 7.59896 102.808H7.59898Z" fill="#FFB8B8"/>
<path d="M53.7853 44.1714C59.9831 44.1714 65.0073 39.1471 65.0073 32.9494C65.0073 26.7516 59.9831 21.7273 53.7853 21.7273C47.5875 21.7273 42.5632 26.7516 42.5632 32.9494C42.5632 39.1471 47.5875 44.1714 53.7853 44.1714Z" fill="#FFB8B8"/>
<path d="M63.8562 98.915C55.9844 98.9152 46.5038 97.2571 40.6552 90.4728L40.5235 90.32L40.659 90.17C40.7032 90.1212 45.0058 85.2041 40.7096 76.435L34.8029 78.2523L28.9224 70.4901L32.1799 60.7172L45.5113 49.9782C47.4215 48.448 49.7471 47.5266 52.1869 47.3331C56.6025 46.9062 60.9039 45.6812 64.8819 43.7176C66.7022 42.8333 68.7069 42.3951 70.7302 42.439L70.9923 42.4464C71.6076 42.4638 72.213 42.6059 72.7717 42.8641C73.3305 43.1224 73.8309 43.4915 74.2428 43.9489C74.6547 44.4064 74.9694 44.9427 75.1678 45.5254C75.3662 46.1081 75.4442 46.725 75.3972 47.3387C74.4932 59.0491 72.8968 87.3378 77.5864 97.078L77.7076 97.3297L77.4369 97.3984C72.9795 98.4013 68.4251 98.9099 63.8562 98.915Z" fill="white"/>
<path d="M42.199 90.3234C42.199 90.3234 12.5002 87.582 9.30186 96.2631C6.10353 104.944 9.75877 109.056 15.2416 110.884C20.7245 112.712 33.9747 114.996 33.9747 114.996L39.9145 107.686L55.4493 108.6C55.4493 108.6 72.759 118.639 77.5451 129.377C78.5718 131.701 80.2092 133.703 82.2831 135.17C84.357 136.637 86.7899 137.515 89.3229 137.71C93.16 137.977 96.5707 136.528 96.5707 130.531C96.5707 116.824 77.3807 97.177 77.3807 97.177L42.199 90.3234Z" fill="#020202"/>
<path d="M19.5828 103.802C19.5828 103.802 27.3501 101.517 39.6866 107.457L19.5828 103.802Z" fill="#020202"/>
<path d="M42.5908 25.7928C46.9734 28.4682 51.9142 30.0961 57.0287 30.5501L55.5068 28.7266C56.6149 29.1363 57.7809 29.3678 58.9615 29.4126C59.5526 29.4297 60.1394 29.3081 60.675 29.0574C61.2105 28.8067 61.6799 28.434 62.0454 27.9692C62.3439 27.4864 62.5212 26.9387 62.5622 26.3726C62.6032 25.8066 62.5067 25.239 62.281 24.7183C61.8171 23.6797 61.0953 22.7771 60.184 22.0963C58.5688 20.8186 56.6626 19.9604 54.6353 19.598C52.6079 19.2357 50.5224 19.3806 48.5647 20.0197C47.2217 20.4211 46.019 21.1926 45.0943 22.2459C44.6397 22.7764 44.324 23.4116 44.1754 24.0943C44.0269 24.777 44.0502 25.4859 44.2433 26.1574" fill="#FAEFAE"/>
<path d="M55.5967 16.8231C57.5907 12.1934 60.5753 8.0571 64.3404 4.70536C66.7584 2.55665 69.5823 0.710602 72.7686 0.153351C75.955 -0.403899 79.5459 0.550781 81.5003 3.12834C83.0984 5.23604 83.3975 8.0596 83.2214 10.6988C83.0453 13.338 82.4555 15.9516 82.5119 18.5961C82.5696 21.2943 83.3002 23.9355 84.6375 26.2797C85.9748 28.624 87.8763 30.5972 90.1696 32.0201C92.4629 33.4431 95.0753 34.2707 97.7696 34.4279C100.464 34.5852 103.155 34.067 105.598 32.9205C102.847 34.4415 100.703 36.8488 98.1483 38.6812C95.5938 40.5135 92.2255 41.7699 89.3244 40.5591C86.2548 39.2781 84.8469 35.7985 83.7474 32.6593L78.844 18.66C78.0104 16.2802 77.1356 13.8298 75.4345 11.9684C73.7335 10.1071 70.973 8.97257 68.6315 9.90836C66.8569 10.6176 65.7016 12.3106 64.6883 13.931C63.6751 15.5513 62.6062 17.2754 60.8944 18.125C59.1826 18.9747 56.6459 18.4516 56.0864 16.6242" fill="#FAEFAE"/>
<path d="M55.284 84.7139L52.1328 87.9478L67.378 102.804L70.5293 99.5697L55.284 84.7139Z" fill="#C9C9C9"/>
<path d="M67.5678 99.836C66.9446 100.476 66.525 101.286 66.3621 102.164C66.1992 103.042 66.3004 103.948 66.6528 104.769C67.0052 105.59 67.593 106.287 68.3419 106.774C69.0908 107.26 69.9671 107.514 70.8601 107.502C71.753 107.491 72.6226 107.214 73.3586 106.709C74.0947 106.203 74.6642 105.49 74.9953 104.661C75.3263 103.832 75.404 102.923 75.2184 102.049C75.0329 101.176 74.5925 100.377 73.9529 99.7534C73.0952 98.9176 71.9407 98.4568 70.7433 98.4723C69.5458 98.4878 68.4036 98.9783 67.5678 99.836ZM72.1876 104.338C71.9205 104.612 71.5781 104.801 71.2037 104.88C70.8294 104.96 70.4398 104.926 70.0843 104.784C69.7289 104.643 69.4235 104.399 69.2067 104.083C68.99 103.768 68.8717 103.395 68.8667 103.012C68.8618 102.63 68.9704 102.254 69.1789 101.933C69.3874 101.612 69.6864 101.36 70.0381 101.209C70.3897 101.058 70.7783 101.015 71.1546 101.085C71.5309 101.154 71.8781 101.334 72.1522 101.601C72.5198 101.959 72.73 102.449 72.7366 102.962C72.7433 103.475 72.5458 103.97 72.1876 104.338Z" fill="#C9C9C9"/>
<path d="M50.6483 78.6538L52.7914 80.8094L51.7495 84.5085L47.951 85.4349L45.9598 83.4321C45.8237 84.5684 46.0467 85.7189 46.5974 86.7221C47.1481 87.7253 47.999 88.5311 49.0307 89.0263C50.0625 89.5216 51.2233 89.6816 52.3506 89.4838C53.4778 89.2861 54.5149 88.7405 55.3164 87.9236C56.118 87.1067 56.6438 86.0595 56.8202 84.9287C56.9965 83.7979 56.8145 82.6403 56.2998 81.6181C55.7851 80.596 54.9633 79.7605 53.9499 79.2289C52.9364 78.6973 51.7819 78.4962 50.6483 78.6538Z" fill="#C9C9C9"/>
<path d="M59.4474 98.9542C59.2538 98.9541 59.0603 98.9434 58.8679 98.9221C57.74 98.7913 56.6893 98.2832 55.8865 97.4803C55.0836 96.6773 54.5757 95.6267 54.445 94.4987C54.3647 93.7951 54.4341 93.0824 54.6484 92.4074C54.8628 91.7324 55.2174 91.1103 55.6889 90.5818C56.1604 90.0534 56.7383 89.6306 57.3847 89.341C58.031 89.0515 58.7312 88.9017 59.4395 88.9017C59.6636 88.9028 59.8875 88.9195 60.1093 88.9516L75.4515 72.6195L73.85 67.2808L81.8938 63.675L84.1481 69.1853C84.9035 71.052 85.0368 73.1124 84.5284 75.0608C84.0199 77.0092 82.8968 78.7418 81.3257 80.0014L64.438 93.4348C64.4558 93.5984 64.4649 93.7629 64.4654 93.9276C64.4649 94.6344 64.3156 95.3331 64.0272 95.9784C63.7388 96.6237 63.3177 97.201 62.7914 97.6727C61.8748 98.5008 60.6826 98.9577 59.4474 98.9542Z" fill="#FFB8B8"/>
<path d="M71.4412 44.6328C71.9731 44.3963 72.5474 44.2699 73.1294 44.261C73.7114 44.2521 74.2893 44.361 74.8282 44.581C75.3671 44.8011 75.856 45.1278 76.2655 45.5415C76.6749 45.9553 76.9965 46.4475 77.211 46.9887L85.1483 67.0211L72.8119 75.2454L71.4412 44.6328Z" fill="white"/>
</svg>
